<?xml version="1.0" standalone="no"?>
<!DOCTYPE svg PUBLIC "-//W3C//DTD SVG 20010904//EN"
 "http://www.w3.org/TR/2001/REC-SVG-20010904/DTD/svg10.dtd">
<svg version="1.0" xmlns="http://www.w3.org/2000/svg"
 width="1280.000000pt" height="853.000000pt" viewBox="0 0 1280.000000 853.000000"
 preserveAspectRatio="xMidYMid meet">
<metadata>
Created by potrace 1.15, written by Peter Selinger 2001-2017
</metadata>
<g transform="translate(0.000000,853.000000) scale(0.100000,-0.100000)"
fill="#000000" stroke="none">
<path d="M365 8511 c-76 -27 -110 -47 -157 -92 -23 -22 -57 -49 -75 -61 -19
-11 -40 -33 -49 -49 -17 -34 -54 -198 -54 -241 0 -16 -7 -43 -16 -59 -13 -26
-14 -58 -8 -217 7 -202 20 -258 79 -351 14 -23 31 -67 36 -99 13 -66 32 -106
93 -194 48 -70 61 -105 71 -193 14 -118 46 -177 188 -339 73 -83 101 -136 138
-257 12 -41 43 -113 68 -162 25 -48 57 -109 71 -135 14 -27 37 -63 52 -80 30
-35 49 -86 72 -187 9 -38 25 -81 36 -95 42 -53 60 -138 60 -295 0 -55 6 -136
14 -181 7 -44 9 -89 5 -100 -16 -40 -9 -89 21 -144 56 -100 61 -118 101 -320
5 -25 27 -83 49 -128 22 -46 40 -90 40 -97 0 -7 16 -29 35 -49 19 -21 35 -43
35 -50 0 -7 9 -21 20 -31 11 -10 31 -36 44 -59 14 -23 44 -59 67 -81 22 -22
49 -57 60 -77 10 -20 40 -53 66 -73 27 -20 62 -56 80 -80 21 -28 62 -61 115
-94 46 -27 107 -69 136 -93 29 -24 71 -52 92 -63 22 -11 80 -54 130 -95 100
-82 190 -139 320 -200 103 -49 133 -59 330 -105 85 -20 180 -43 211 -51 30 -8
75 -14 100 -14 24 -1 96 -9 159 -19 l115 -18 -65 -30 c-36 -17 -119 -61 -185
-100 -66 -38 -149 -84 -185 -102 -36 -18 -72 -39 -81 -47 -8 -8 -20 -14 -25
-14 -6 0 -23 -13 -38 -29 -15 -16 -46 -37 -69 -47 -23 -10 -51 -27 -62 -37
-11 -10 -36 -27 -55 -37 -46 -24 -90 -67 -106 -107 -8 -17 -39 -58 -70 -90
-31 -32 -63 -65 -70 -74 -23 -27 -27 -74 -10 -132 16 -56 31 -72 105 -120 20
-13 45 -43 60 -72 24 -49 25 -55 27 -310 3 -301 11 -380 49 -454 32 -63 63
-94 128 -127 64 -33 100 -87 137 -204 16 -55 35 -102 41 -106 6 -3 19 -25 29
-49 10 -23 31 -57 48 -76 16 -19 52 -73 80 -120 69 -116 167 -208 276 -259 75
-34 88 -45 168 -137 103 -120 189 -187 318 -251 88 -43 102 -47 183 -50 135
-6 240 13 350 62 111 50 239 138 317 217 30 30 98 86 150 124 95 68 147 110
243 196 29 25 79 60 112 79 110 61 275 225 275 273 0 12 18 59 39 104 22 45
45 100 51 122 6 23 31 83 55 133 25 50 45 104 45 120 0 24 26 100 60 173 10
20 115 345 145 445 19 65 66 155 80 155 11 0 22 -137 24 -305 1 -63 8 -144 16
-180 38 -161 111 -392 147 -465 42 -86 136 -196 198 -232 50 -29 153 -37 235
-18 138 32 217 84 265 174 26 49 88 251 100 322 12 78 35 197 51 264 5 22 12
123 15 225 3 102 8 192 11 200 12 35 153 -306 153 -370 0 -14 13 -52 28 -85
16 -33 34 -82 41 -110 18 -67 72 -227 83 -241 5 -6 19 -42 32 -80 13 -38 37
-96 53 -129 17 -33 38 -82 47 -110 46 -146 58 -170 131 -252 42 -49 152 -127
226 -162 24 -12 55 -37 69 -55 24 -32 279 -231 330 -256 14 -7 53 -35 87 -61
78 -61 244 -154 303 -169 25 -7 88 -33 139 -59 93 -45 97 -46 190 -46 110 0
150 14 241 83 30 23 71 49 90 59 19 9 94 76 167 149 119 119 137 134 186 148
62 18 135 71 187 137 20 24 75 105 124 179 49 74 97 147 106 161 10 14 31 61
46 105 15 43 31 84 36 90 5 6 6 18 3 26 -9 23 32 65 106 109 74 43 122 97 138
157 15 54 29 163 42 324 10 119 10 161 -1 218 -11 57 -11 81 -1 127 12 53 19
64 96 138 65 63 86 90 94 123 15 53 5 105 -25 142 -13 15 -24 33 -24 38 0 6
-25 32 -55 57 -30 26 -55 55 -55 65 0 10 -17 32 -37 49 -71 60 -125 101 -134
101 -11 0 -70 40 -96 67 -13 12 -35 26 -50 29 -16 4 -39 15 -53 24 -80 54 -95
62 -392 219 -38 20 -68 38 -68 41 0 8 77 30 106 30 31 0 121 15 254 41 52 10
103 19 115 19 11 0 90 20 175 45 196 58 380 148 512 253 51 40 129 97 173 128
44 30 102 72 129 94 27 21 70 49 95 62 25 13 90 65 143 116 53 50 101 92 106
92 5 0 12 13 15 28 3 15 30 55 59 88 160 179 257 360 302 564 42 193 45 201
87 266 39 61 47 88 29 99 -13 8 -13 120 0 165 6 19 12 98 14 175 4 161 14 208
55 259 21 27 33 58 45 121 12 68 24 97 56 145 23 33 54 89 70 124 15 35 33 67
39 71 18 11 60 100 97 206 55 160 78 202 146 275 123 133 137 156 153 241 8
43 17 99 20 125 4 26 13 54 21 62 8 8 14 21 14 28 0 8 15 32 33 54 53 62 86
127 93 180 3 27 16 72 28 99 72 153 85 186 91 226 3 24 2 65 -4 90 -7 32 -7
57 1 85 18 65 15 165 -7 197 -13 20 -18 44 -16 83 2 67 -53 227 -84 243 -38
20 -58 36 -92 73 -47 50 -169 98 -252 98 -63 0 -238 -48 -366 -100 -151 -62
-272 -112 -310 -130 -22 -9 -98 -43 -170 -75 -71 -31 -175 -79 -230 -105 -56
-28 -138 -58 -187 -69 -57 -14 -130 -42 -208 -81 -66 -33 -137 -66 -157 -74
-89 -33 -276 -116 -335 -149 -35 -20 -90 -56 -123 -81 -32 -25 -62 -46 -65
-46 -4 0 -27 -16 -51 -35 -24 -19 -49 -35 -55 -35 -6 0 -19 -9 -29 -20 -10
-11 -24 -20 -31 -20 -6 0 -32 -16 -55 -36 -24 -20 -53 -40 -65 -44 -12 -5 -75
-48 -140 -97 -66 -49 -137 -100 -159 -114 -37 -22 -97 -62 -182 -122 -86 -60
-273 -209 -398 -317 -77 -66 -189 -160 -250 -208 -60 -48 -157 -133 -215 -189
-58 -56 -154 -141 -214 -190 -61 -48 -134 -117 -163 -153 -29 -36 -59 -72 -65
-80 -7 -8 -53 -65 -102 -125 -50 -61 -119 -141 -156 -180 -101 -108 -206 -226
-237 -267 -15 -20 -55 -70 -89 -110 -33 -40 -69 -88 -79 -106 -11 -17 -23 -32
-27 -32 -4 0 -21 -26 -37 -57 -17 -34 -57 -85 -96 -123 -96 -93 -372 -394
-429 -467 -26 -34 -54 -64 -62 -67 -22 -8 -47 40 -52 99 -4 46 -2 55 17 64 27
15 27 33 -2 68 -31 37 -39 73 -22 97 21 28 28 97 16 144 -20 74 -108 152 -171
152 -19 0 -30 5 -30 14 0 12 54 131 131 290 16 33 29 66 29 75 1 9 21 54 45
101 24 47 104 204 177 350 74 146 147 285 164 310 43 62 73 124 91 184 8 28
28 76 44 106 16 30 35 81 43 112 8 31 19 65 24 75 30 56 64 388 43 421 -16 26
-28 -14 -35 -114 -7 -100 -20 -164 -70 -344 -41 -147 -46 -159 -90 -235 -23
-38 -55 -101 -71 -139 -16 -38 -35 -74 -41 -81 -7 -7 -93 -171 -191 -364 -197
-390 -240 -469 -300 -555 -12 -17 -34 -49 -49 -71 -36 -55 -51 -65 -97 -65
-56 0 -100 37 -141 118 -19 37 -46 84 -60 105 -14 21 -26 44 -26 51 0 7 -22
42 -50 76 -27 34 -50 68 -50 76 0 7 -39 91 -87 187 -49 95 -110 220 -137 276
-27 57 -64 126 -84 155 -59 86 -143 287 -210 501 -43 136 -58 211 -70 360 -7
86 -8 89 -22 65 -11 -18 -15 -51 -14 -115 4 -210 42 -375 124 -535 21 -41 59
-120 85 -174 26 -55 65 -127 88 -160 22 -33 77 -139 122 -236 45 -96 106 -220
137 -275 31 -55 67 -132 81 -171 14 -39 53 -128 86 -197 34 -69 61 -130 61
-136 0 -6 -11 -11 -25 -11 -32 0 -93 -25 -118 -48 -57 -51 -72 -152 -37 -244
26 -68 26 -66 -11 -121 -31 -47 -33 -77 -5 -77 10 0 15 -15 18 -51 3 -56 -22
-108 -53 -109 -9 0 -36 28 -60 63 -24 34 -96 118 -159 187 -64 69 -136 152
-160 184 -24 33 -88 107 -142 165 -119 127 -199 242 -229 331 -12 36 -38 90
-58 120 -59 90 -506 540 -720 725 -58 50 -150 131 -205 181 -95 85 -172 148
-259 211 -90 66 -180 148 -290 265 -78 84 -134 134 -169 153 -29 16 -66 39
-81 52 -16 12 -33 23 -38 23 -5 0 -39 21 -76 47 -38 25 -84 57 -103 69 -19 13
-46 32 -60 42 -14 11 -67 43 -117 71 -51 29 -106 63 -122 77 -16 13 -34 24
-40 24 -6 0 -31 18 -55 40 -24 22 -50 40 -58 40 -8 0 -31 13 -51 29 -20 15
-50 34 -67 41 -16 7 -30 16 -30 20 0 4 -24 22 -52 41 -134 85 -245 143 -468
244 -57 26 -118 58 -135 70 -44 34 -208 101 -302 124 -45 11 -109 34 -143 51
-34 17 -96 40 -136 50 -46 12 -135 51 -230 100 -85 44 -161 80 -168 80 -7 0
-49 16 -92 36 -97 45 -438 154 -479 153 -16 0 -52 -8 -80 -18z"/>
</g>
</svg>
