<?xml version="1.0" encoding="iso-8859-1"?>
<!-- Uploaded to: SVG Repo, www.svgrepo.com, Generator: SVG Repo Mixer Tools -->
<svg height="800px" width="800px" version="1.1" id="Layer_1" xmlns="http://www.w3.org/2000/svg" xmlns:xlink="http://www.w3.org/1999/xlink" 
	 viewBox="0 0 512 512" xml:space="preserve">
<path style="fill:#FFA046;" d="M384.267,257.972c25.653,0,59.858,17.102,59.858,42.756S401.37,411.893,341.511,411.893
	c-17.102,0-85.511-111.165-85.511-111.165v-42.756C256,257.972,367.165,257.972,384.267,257.972z"/>
<g>
	<path style="fill:#FF8C41;" d="M273.102,266.523c58.379,22.595,126.778,57.113,159.616,70.653
		c-16.534,33.734-49.764,74.717-91.207,74.717C324.409,411.893,273.102,266.523,273.102,266.523L273.102,266.523z"/>
	<path style="fill:#FF8C41;" d="M444.125,104.052c26.397-5.866,59.858-8.551,59.858,17.102s-19.857,42.183-25.653,76.96
		c-3.979,23.876-9.81,38.493-14.909,47.299c-4.545,7.851-13.007,12.561-22.079,12.561H264.551v-8.551
		C264.551,249.421,367.165,121.154,444.125,104.052z"/>
</g>
<path style="fill:#FF783C;" d="M264.551,249.421c0,0,102.614-128.267,179.574-145.37c26.397-5.866,59.858-8.551,59.858,17.102
	c0,2.761-0.326,5.378-0.744,7.962c-31.211-2.784-99.66-9.294-230.137,128.856h-8.551V249.421L264.551,249.421z"/>
<path style="fill:#594759;" d="M402.438,325.313c11.781-30.108,7.541-49.7-9.003-66.646c23.935,3.393,50.69,19.369,50.69,42.061
	c0,25.196-41.259,108.078-99.445,111.025C355.077,391.931,387.077,364.569,402.438,325.313z"/>
<g>
	<circle style="fill:#FF783C;" cx="424.96" cy="294.854" r="11.032"/>
	<circle style="fill:#FF783C;" cx="419.541" cy="326.376" r="9.395"/>
	<circle style="fill:#FF783C;" cx="406.361" cy="352.04" r="8.218"/>
	<circle style="fill:#FF783C;" cx="389.793" cy="373.589" r="7.504"/>
</g>
<path style="fill:#FFA046;" d="M127.733,257.972c-25.653,0-59.858,17.102-59.858,42.756s42.756,111.165,102.614,111.165
	c17.102,0,85.511-111.165,85.511-111.165v-42.756C256,257.972,144.835,257.972,127.733,257.972z"/>
<g>
	<path style="fill:#FF8C41;" d="M238.898,266.523c-58.379,22.595-126.778,57.113-159.616,70.653
		c16.534,33.734,49.764,74.717,91.207,74.717C187.591,411.893,238.898,266.523,238.898,266.523L238.898,266.523z"/>
	<path style="fill:#FF8C41;" d="M67.875,104.052C41.477,98.186,8.017,95.5,8.017,121.154s19.857,42.183,25.653,76.96
		c3.979,23.876,9.81,38.493,14.909,47.299c4.545,7.851,13.007,12.561,22.079,12.561h176.791v-8.551
		C247.449,249.421,144.835,121.154,67.875,104.052z"/>
</g>
<path style="fill:#FF783C;" d="M247.449,249.421c0,0-102.614-128.267-179.574-145.37C41.477,98.186,8.017,95.5,8.017,121.154
	c0,2.761,0.326,5.378,0.744,7.962c31.211-2.784,99.66-9.294,230.137,128.856h8.551V249.421z"/>
<path style="fill:#594759;" d="M109.562,325.313c-11.781-30.108-7.541-49.7,9.003-66.646c-23.935,3.394-50.69,19.369-50.69,42.061
	c0,25.196,41.259,108.078,99.445,111.025C156.923,391.931,124.923,364.569,109.562,325.313z"/>
<g>
	<circle style="fill:#FF783C;" cx="87.04" cy="294.854" r="11.032"/>
	<circle style="fill:#FF783C;" cx="92.459" cy="326.376" r="9.395"/>
	<circle style="fill:#FF783C;" cx="105.639" cy="352.04" r="8.218"/>
	<circle style="fill:#FF783C;" cx="122.207" cy="373.589" r="7.504"/>
</g>
<path style="fill:#594759;" d="M256,300.728L256,300.728c-9.446,0-17.102-7.656-17.102-17.102v-34.205
	c0-9.446,7.656-17.102,17.102-17.102l0,0c9.446,0,17.102,7.656,17.102,17.102v34.205C273.102,293.072,265.446,300.728,256,300.728z"
	/>
<path d="M153.472,318.365h-0.086c-4.427,0-7.974,3.589-7.974,8.017c0,4.427,3.632,8.017,8.059,8.017s8.017-3.589,8.017-8.017
	C161.488,321.954,157.899,318.365,153.472,318.365z"/>
<path d="M93.614,172.995h-0.086c-4.427,0-7.974,3.589-7.974,8.017c0,4.427,3.632,8.017,8.059,8.017c4.427,0,8.017-3.589,8.017-8.017
	C101.63,176.585,98.041,172.995,93.614,172.995z"/>
<path d="M144.921,172.995h-0.086c-4.427,0-7.974,3.589-7.974,8.017c0,4.427,3.632,8.017,8.059,8.017s8.017-3.589,8.017-8.017
	C152.937,176.585,149.348,172.995,144.921,172.995z"/>
<path d="M170.574,198.649h-0.086c-4.427,0-7.974,3.589-7.974,8.017c0,4.427,3.632,8.017,8.059,8.017s8.017-3.589,8.017-8.017
	C178.591,202.238,175.001,198.649,170.574,198.649z"/>
<path d="M119.182,198.649h-0.086c-4.427,0-7.974,3.589-7.974,8.017c0,4.427,3.632,8.017,8.059,8.017
	c4.427,0,8.017-3.589,8.017-8.017C127.198,202.238,123.609,198.649,119.182,198.649z"/>
<path d="M144.878,224.345h-0.086c-4.427,0-7.974,3.589-7.974,8.017s3.632,8.017,8.059,8.017s8.017-3.589,8.017-8.017
	S149.305,224.345,144.878,224.345z"/>
<path d="M136.284,284.16h-0.086c-4.427,0-7.974,3.589-7.974,8.017c0,4.427,3.632,8.017,8.059,8.017c4.427,0,8.017-3.589,8.017-8.017
	C144.301,287.75,140.711,284.16,136.284,284.16z"/>
<path d="M502.445,99.796c-11.112-8.913-30.757-10.082-60.059-3.57c-67.152,14.923-144.429,102.121-168.299,130.744
	c17.564-67.612,62.749-98.759,63.332-99.154c3.674-2.458,4.665-7.429,2.21-11.109c-2.456-3.684-7.434-4.679-11.116-2.223
	c-2.146,1.431-51.474,35.062-70.318,109.921c-0.724-0.063-1.455-0.102-2.196-0.102c-0.741,0-1.471,0.038-2.196,0.102
	c-18.845-74.859-68.172-108.489-70.318-109.921c-3.677-2.451-8.64-1.459-11.1,2.214s-1.475,8.649,2.192,11.118
	c0.123,0.082,12.393,8.429,26.483,25.668c12.12,14.83,27.971,39.305,36.853,73.49c-23.867-28.62-101.147-115.824-168.302-130.747
	c-29.301-6.512-48.946-5.343-60.059,3.57C5.196,103.293,0,109.836,0,121.154c0,15.043,5.806,26.959,11.952,39.575
	c5.499,11.288,11.186,22.959,13.81,38.704c3.506,21.033,8.848,37.855,15.878,49.996c5.913,10.214,17.033,16.559,29.017,16.559h9.024
	c-11.61,8.613-19.824,20.413-19.824,34.74c0,16.417,13.082,46.497,30.43,69.968c23.457,31.737,51.94,49.214,80.2,49.214
	c7.203,0,18.047-4.562,55.761-59.036c7.929-11.453,15.531-22.962,21.734-32.544v57.909c0,4.427,3.589,8.017,8.017,8.017
	c4.427,0,8.017-3.589,8.017-8.017V328.33c6.204,9.582,13.806,21.09,21.734,32.544c37.713,54.474,48.557,59.036,55.761,59.036
	c28.26,0,56.743-17.477,80.2-49.214c17.348-23.471,30.43-53.55,30.43-69.968c0-14.329-8.213-26.127-19.824-34.739h9.024
	c11.984,0,23.104-6.345,29.017-16.559c7.03-12.143,12.372-28.964,15.878-49.997c2.624-15.744,8.311-27.416,13.81-38.704
	C506.194,148.113,512,136.196,512,121.154C512,109.836,506.804,103.293,502.445,99.796z M265.086,249.421v34.205
	c0,5.01-4.076,9.086-9.086,9.086c-5.01,0-9.086-4.076-9.086-9.086v-34.205c0-5.01,4.076-9.086,9.086-9.086
	C261.01,240.336,265.086,244.411,265.086,249.421z M70.658,249.956c-6.283,0-12.085-3.28-15.142-8.56
	c-1.405-2.425-2.995-5.596-4.637-9.617c4.377-0.058,7.91-3.62,7.91-8.011c0-4.427-3.589-8.017-8.017-8.017h-5.169
	c-1.392-5.249-2.715-11.277-3.888-18.171h9.057c4.427,0,8.017-3.589,8.017-8.017c0-4.427-3.589-8.017-8.017-8.017H37.98
	c-2.044-6.675-4.494-12.647-7.012-18.171h2.702c4.427,0,8.017-3.589,8.017-8.017s-3.589-8.017-8.017-8.017H23.304
	c-4.134-8.819-7.271-17.008-7.271-26.188c0-5.378,2.029-7.628,3.554-8.852c3.926-3.149,15.193-7.392,46.548-0.425
	c68.734,15.274,154.2,118.752,165.264,132.454c-0.34,1.644-0.518,3.346-0.518,5.089v0.534H70.658V249.956z M103.181,361.165
	c-18.617-25.187-27.29-50.954-27.29-60.437c0-12.714,12.381-23.793,27.555-29.847c-6.783,11.567-11.884,30.434-1.35,57.353
	c10.428,26.65,26.038,43.219,38.582,56.532c6.048,6.419,11.207,11.896,14.126,16.853C131.23,394.84,112.907,374.325,103.181,361.165
	z M172.432,402.337c-2.722-10.141-10.827-18.742-20.085-28.567c-11.594-12.306-26.024-27.621-35.321-51.379
	c-6.867-17.548-6.612-32.433,0.758-44.24c4.159-6.665,9.575-10.59,12.074-12.162h101.022v17.637c0,9.351,5.139,17.518,12.738,21.843
	C210.737,357.988,183.036,394.147,172.432,402.337z M408.819,361.165c-9.726,13.159-28.049,33.673-51.623,40.452
	c2.919-4.958,8.08-10.435,14.126-16.853c12.543-13.313,28.154-29.882,38.582-56.532c10.533-26.919,5.433-45.786-1.35-57.353
	c15.174,6.055,27.555,17.134,27.555,29.848C436.109,310.211,427.436,335.978,408.819,361.165z M394.214,278.152
	c7.37,11.807,7.625,26.691,0.758,44.24c-9.296,23.757-23.726,39.072-35.321,51.378c-9.258,9.825-17.362,18.427-20.085,28.567
	c-10.604-8.191-38.305-44.351-71.187-96.868c7.599-4.325,12.738-12.492,12.738-21.843V265.99h101.017
	C384.661,267.578,390.063,271.5,394.214,278.152z M441.342,249.956H281.119v-0.534c0-1.743-0.18-3.445-0.52-5.089
	c11.059-13.702,96.478-117.168,165.264-132.454c31.354-6.967,42.622-2.725,46.548,0.425c1.525,1.224,3.554,3.473,3.554,8.852
	c0,9.18-3.136,17.368-7.271,26.188H478.33c-4.427,0-8.017,3.589-8.017,8.017s3.589,8.017,8.017,8.017h2.702
	c-2.518,5.524-4.968,11.496-7.012,18.171h-12.793c-4.427,0-8.017,3.589-8.017,8.017s3.589,8.017,8.017,8.017h9.057
	c-1.173,6.894-2.496,12.922-3.888,18.171h-5.169c-4.427,0-8.017,3.589-8.017,8.017c0,4.391,3.532,7.954,7.91,8.011
	c-1.642,4.021-3.233,7.193-4.637,9.617C453.427,246.676,447.625,249.956,441.342,249.956z"/>
<path d="M358.528,334.398h0.086c4.427,0,7.974-3.589,7.974-8.017c0-4.427-3.632-8.017-8.059-8.017c-4.427,0-8.017,3.589-8.017,8.017
	C350.512,330.809,354.101,334.398,358.528,334.398z"/>
<path d="M418.386,172.995c-4.427,0-8.017,3.589-8.017,8.017c0,4.427,3.589,8.017,8.017,8.017h0.086c4.427,0,7.974-3.589,7.974-8.017
	C426.446,176.585,422.814,172.995,418.386,172.995z"/>
<path d="M367.079,189.029h0.086c4.427,0,7.974-3.589,7.974-8.017c0-4.427-3.632-8.017-8.059-8.017s-8.017,3.589-8.017,8.017
	C359.063,185.439,362.652,189.029,367.079,189.029z"/>
<path d="M341.426,198.649c-4.427,0-8.017,3.589-8.017,8.017c0,4.427,3.589,8.017,8.017,8.017h0.085c4.427,0,7.974-3.589,7.974-8.017
	C349.485,202.238,345.853,198.649,341.426,198.649z"/>
<path d="M392.818,198.649c-4.427,0-8.017,3.589-8.017,8.017c0,4.427,3.589,8.017,8.017,8.017h0.085c4.427,0,7.974-3.589,7.974-8.017
	C400.878,202.238,397.246,198.649,392.818,198.649z"/>
<path d="M367.122,224.345c-4.427,0-8.017,3.589-8.017,8.017s3.589,8.017,8.017,8.017h0.086c4.427,0,7.974-3.589,7.974-8.017
	S371.55,224.345,367.122,224.345z"/>
<path d="M375.716,300.194h0.085c4.427,0,7.974-3.589,7.974-8.017c0-4.427-3.632-8.017-8.059-8.017c-4.427,0-8.017,3.589-8.017,8.017
	C367.699,296.604,371.289,300.194,375.716,300.194z"/>
</svg>